<svg xmlns="http://www.w3.org/2000/svg" viewBox="0 0 536 132" preserveAspectRatio="xMidYMid meet">
<path d="M 0 132 L 3 132 L 3 108 L 26 108 L 26 107 L 27 107 L 27 106 L 28 106 L 28 86 L 31 86 L 31 85 L 42 85 L 42 104 L 45 104 L 45 105 L 51 105 L 51 104 L 53 104 L 53 105 L 59 105 L 59 104 L 60 104 L 60 102 L 62 102 L 62 103 L 63 103 L 63 104 L 65 104 L 65 105 L 71 105 L 71 104 L 74 104 L 74 99 L 76 99 L 76 98 L 77 98 L 77 96 L 79 96 L 79 99 L 83 99 L 83 97 L 84 97 L 84 96 L 87 96 L 87 95 L 91 95 L 91 96 L 93 96 L 93 105 L 96 105 L 96 103 L 98 103 L 98 100 L 101 100 L 101 101 L 102 101 L 102 103 L 104 103 L 104 95 L 108 95 L 108 87 L 110 87 L 110 86 L 114 86 L 114 87 L 115 87 L 115 88 L 117 88 L 117 92 L 121 92 L 121 95 L 122 95 L 122 97 L 127 97 L 127 100 L 133 100 L 133 80 L 143 80 L 143 96 L 153 96 L 153 94 L 154 94 L 154 93 L 155 93 L 155 91 L 161 91 L 161 93 L 163 93 L 163 100 L 164 100 L 164 80 L 166 80 L 166 100 L 169 100 L 169 94 L 181 94 L 181 97 L 185 97 L 185 95 L 190 95 L 190 96 L 193 96 L 193 97 L 195 97 L 195 98 L 201 98 L 201 99 L 205 99 L 205 98 L 208 98 L 208 93 L 212 93 L 212 94 L 215 94 L 215 95 L 217 95 L 217 98 L 223 98 L 223 99 L 226 99 L 226 93 L 227 93 L 227 94 L 229 94 L 229 93 L 230 93 L 230 90 L 233 90 L 233 89 L 235 89 L 235 88 L 239 88 L 239 89 L 240 89 L 240 90 L 246 90 L 246 91 L 248 91 L 248 90 L 250 90 L 250 91 L 254 91 L 254 92 L 258 92 L 258 91 L 259 91 L 259 84 L 260 84 L 260 83 L 261 83 L 261 81 L 264 81 L 264 84 L 265 84 L 265 87 L 267 87 L 267 88 L 272 88 L 272 95 L 273 95 L 273 94 L 274 94 L 274 95 L 277 95 L 277 92 L 279 92 L 279 93 L 281 93 L 281 86 L 283 86 L 283 85 L 285 85 L 285 84 L 288 84 L 288 85 L 296 85 L 296 86 L 297 86 L 297 91 L 301 91 L 301 89 L 302 89 L 302 87 L 303 87 L 303 86 L 305 86 L 305 85 L 309 85 L 309 77 L 311 77 L 311 75 L 317 75 L 317 76 L 318 76 L 318 77 L 319 77 L 319 76 L 320 76 L 320 75 L 322 75 L 322 76 L 323 76 L 323 77 L 327 77 L 327 42 L 337 42 L 337 41 L 338 41 L 338 42 L 347 42 L 347 82 L 351 82 L 351 81 L 353 81 L 353 80 L 354 80 L 354 81 L 355 81 L 355 82 L 357 82 L 357 81 L 359 81 L 359 82 L 362 82 L 362 83 L 369 83 L 369 90 L 370 90 L 370 92 L 371 92 L 371 93 L 372 93 L 372 87 L 375 87 L 375 86 L 376 86 L 376 85 L 378 85 L 378 86 L 380 86 L 380 87 L 381 87 L 381 84 L 384 84 L 384 82 L 387 82 L 387 84 L 390 84 L 390 89 L 393 89 L 393 86 L 395 86 L 395 85 L 397 85 L 397 86 L 400 86 L 400 87 L 401 87 L 401 92 L 402 92 L 402 88 L 410 88 L 410 90 L 412 90 L 412 87 L 413 87 L 413 86 L 414 86 L 414 85 L 417 85 L 417 86 L 422 86 L 422 35 L 424 35 L 424 32 L 426 32 L 426 18 L 427 18 L 427 32 L 428 32 L 428 35 L 431 35 L 431 81 L 435 81 L 435 82 L 439 82 L 439 81 L 441 81 L 441 80 L 447 80 L 447 79 L 448 79 L 448 78 L 449 78 L 449 79 L 455 79 L 455 80 L 461 80 L 461 88 L 467 88 L 467 84 L 468 84 L 468 83 L 469 83 L 469 82 L 473 82 L 473 80 L 482 80 L 482 81 L 489 81 L 489 82 L 491 82 L 491 84 L 496 84 L 496 87 L 497 87 L 497 88 L 499 88 L 499 86 L 505 86 L 505 84 L 509 84 L 509 82 L 510 82 L 510 81 L 511 81 L 511 80 L 516 80 L 516 81 L 517 81 L 517 80 L 519 80 L 519 81 L 522 81 L 522 82 L 523 82 L 523 88 L 526 88 L 526 132 L 535 132" fill="none" stroke="#00E5FF" stroke-width="1" stroke-linejoin="round" stroke-linecap="round"/>
</svg>
